<svg xmlns="http://www.w3.org/2000/svg" height="240" viewBox="0 0 240 240" width="240">
    <path d="m49.9519 33.6932c5.6784-11.8958 21.2269-20.3044 34.3438-18.4893 19.6813 2.7788 22.3943 24.0933 26.2913 39.9584 2.981 12.2056 8.254 24.6467 18.387 32.0828 5.863 4.3234 12.78 6.616 19.607 9.1443 17.291 6.2996 34.476 13.8576 48.344 25.9336s24.34 29.017 25.076 47.455c.215 4.635-.246 9.334-1.762 13.679-3.171 9.613-10.853 17.158-19.303 22.619-11.98 7.728-25.98 12.129-40.244 12.58-13.25.355-26.946-2.767-37.186-11.328-14.554-12.124-19.197-32.233-22.574-50.986-3.3673-18.641-7.2112-38.712-20.9509-51.822-4.2441-4.024-9.3132-7.174-13.5573-11.1976-12.8341-11.9473-20.5626-31.0805-19.1766-48.6983.2781-4.2276 1.2958-7.8445 2.7047-10.9309z" fill="#f5f5f5"/>
    <path d="m179.865 70.0925 9.87 3.3601.884-2.5976c1.486-4.3638 7.119-5.9246 14.042-8.5532 6.886-2.1776 13.916-5.1179 16.852-13.7417 4.527-13.2993-6.522-22.3937-17.328-26.0721-7.065-2.4051-16.396-3.2627-23.558-1.2951l-4.987 14.6501c6.337-3.2918 16.234-4.0966 23.923-1.4793 6.65 2.2636 9.188 7.0695 7.879 10.9138-1.592 4.6756-3.888 5.6328-9.771 8.268-12.046 5.7545-15.594 6.9815-17.022 13.22zm-1.766 26.645c4.883 1.6624 9.757-.7363 11.42-5.6196 1.662-4.8834-.736-9.7578-5.62-11.4202-4.883-1.6623-9.758.7363-11.42 5.6197-1.662 4.8833.736 9.7578 5.62 11.4201z" fill="#da3404"/>
    <path d="m152.747 119.97 5.896-2.092-.55-1.552c-.925-2.606 1.145-5.437 3.425-9.251 2.43-3.588 4.644-7.5876 2.816-12.7388-2.819-7.9439-11.403-8.1118-17.858-5.8213-4.22 1.4976-8.931 4.5668-11.569 8.1584l3.105 8.7507c1.758-3.908 6.116-7.9701 10.709-9.5999 3.972-1.4095 6.955-.0922 7.77 2.204.991 2.7929.266 4.0979-1.522 7.5279-3.527 7.191-4.74 9.089-3.09 12.556zm9.086 13.197c2.917-1.035 4.318-3.978 3.283-6.895s-3.978-4.318-6.895-3.283-4.318 3.978-3.283 6.895 3.978 4.318 6.895 3.283z" fill="#d2d2d2"/>
    <path d="m113.005 210.635c-1.47-3.044 1.088-9.35 4.082-23.267-2.994-.435-7.077-1.849-10.288-1.033-.871 8.1-.055 13.156-1.144 18.918-.598 3.045-1.524 6.578-1.469 8.426 2.232.707 4.464.272 7.077 2.066 2.613 1.849 5.988 1.686 7.131 1.414.816-.218 1.252-.49 1.47-.653-.436-.978-5.172-2.392-6.859-5.871z" fill="#edbab7"/>
    <path d="m107.127 214.821-1.524-.761.109 3.316h1.47z" fill="#da3404"/>
    <path d="m119.376 217.104c-1.035.435-4.355.925-6.533-.163-2.177-1.087-5.389-1.794-7.131-2.446-.055.761.054 1.685.054 2.936-.708-.164-1.524-.055-1.524-.055s.054-1.848-.054-3.751c2.231.707 4.246.163 7.185 1.74 2.831 1.522 5.88 1.957 7.023 1.685.816-.217 1.252-.489 1.47-.652.054.326-.055.543-.49.706z" fill="#da3404"/>
    <path d="m118.396 217.158c.817-.217 1.252-.489 1.47-.652-.218-.598-1.96-1.413-4.029-2.718-2.014 1.196-3.81.544-3.81.544-2.613-1.36-5.444-2.773-7.73-3.099-.273.815-.109 2.011-.109 2.501 2.232.706 5.988 1.685 7.077 2.174 3.211 1.359 5.933 1.522 7.131 1.25z" fill="#da3404"/>
    <path d="m29.4451 214.006c1.3609-.217 13.8816 1.142 27.6544 2.773-.3811-3.262-.0545-8.155-.5444-11.417-6.9681-.326-14.6438 1.414-20.0875.979-2.6675-.218-5.0628-.924-6.6959-1.087-.9799 2.12-2.0142 3.533-4.5728 5.436-2.5585 1.903-3.2662 3.968-3.3751 5.164-.0544.816.0544 1.359.1633 1.577 1.0343-.054 3.6473-2.881 7.458-3.425z" fill="#edbab7"/>
    <path d="m21.5515 216.779c-.1088-1.142.2178-3.262 1.9598-5.002.6175-.636 1.3736-1.266 2.1241-1.89.7418-.618 1.4781-1.231 2.07-1.842l-1.1996-.127-.4899-1.522c.2721-.707.7072-1.36.7072-1.36s1.0888.109 2.9941.218c-.2305.498-.464.958-.7196 1.394l.0304.003c.2439-.421.4681-.864.6896-1.343.4449 0 .9348.045 1.4696.094.054.005.1085.01.1635.015-.5988 2.283-2.9396 5.327-5.0627 6.469 0 0-1.3065 1.196-.8166 3.479-.6729.39-1.2679.789-1.7781 1.131-.7694.516-1.3459.902-1.7059.935-.1089-.218-.2178-.761-.1633-1.577.1089-1.196.8166-3.207 3.3207-5.11 1.2923-.961 2.1957-1.797 2.8997-2.663l-.041-.004c-.6981.848-1.5915 1.67-2.8591 2.613-2.5586 1.903-3.2662 3.969-3.3751 5.165-.0545.815.0544 1.359.1633 1.576-.1633 0-.3266-.163-.3811-.652z" fill="#da3404"/>
    <path d="m64.1135 174.994 42.8405-12.718-5.184 38.209 12.006 1.092s15.554-42.303 5.458-55.13c-10.369-13.209-50.7545.819-50.7545.819l-21.0112-14.465.8186 30.567z" fill="#1a4698"/>
    <path d="m48.139 132.801c-7.6218 9.163-20.6876 36.38-14.6991 50.393 6.2607 14.713 51.991 17.786 51.991 17.786l-37.5641 3.772-.5445 11.588s26.9483.808 37.8364.808c10.8882 0 24.7703-8.893 17.1493-23.175-7.6221-14.282-45.0774-28.403-45.0774-28.403l20.5786-21.451z" fill="#1a4698"/>
    <g fill="#00896c">
        <path d="m52.4914 191.997c-6.8288 5.233-15.8198-6.479-9.1148-11.607l74.9154-55.696c2.951.001 7.902 5.579 7.746 9.846z"/>
        <path d="m122.665 127.259-72.2171 53.737c-4.1796 3.156-2.3083 8.894 1.3664 11.519.2433-.153.4866-.305.7298-.457l73.6049-57.452c.016-2.453-1.557-5.314-3.484-7.347z"/>
        <path d="m126.034 134.591c.156-4.267-4.791-9.901-7.747-9.846l-4.423 3.309c1.682-.041 4.333.108 6.17 1.05 3.054 1.664 4.366 4.162 4.151 6.942z" opacity=".3"/>
        <path d="m222.69 100.062c-2.433 31.426-29.876 54.949-61.264 52.514-31.388-2.436-54.884-29.912-52.451-61.338s29.876-54.9494 61.264-52.5137c31.389 2.4356 54.884 29.9116 52.451 61.3377zm-53.107-52.8559c-26.718-2.0733-50.065 17.9391-52.136 44.6893-2.071 26.7506 17.917 50.1256 44.636 52.1986 26.718 2.073 50.065-17.939 52.136-44.6894 2.016-26.7544-17.918-50.1253-44.636-52.1985z"/>
    </g>
    <path d="m110.449 86.7955.544 3.4793c.054.2718-.163.4892-.436.4349l-1.85-.2718z" fill="#edbab7"/>
    <path d="m113.061 76.5215c1.416 2.1745 0 6.6323-1.742 9.3504-1.742 2.7182-4.681 11.6338-9.2 11.0901-3.266-.3805-5.9879-1.7396-5.9879-1.7396l-7.8935 10.6006-10.8875-6.5777 19.4343-19.5708z" fill="#edbab7"/>
    <path d="m59.525 106.848c-4.6159 6.895-13.3531 27.04-13.3531 27.04s4.1213 2.855 11.1551 5.656c6.759 2.747 15.8259 2.316 15.8259 2.316l10.6056-22.138z" fill="#f2b500"/>
    <path d="m95.2257 63.7228c8.6163-4.0086 13.3063 5.3447 16.2513 6.0685 5.999 1.4476 3.545 11.1907-3.545 13.9187-5.508 2.1157-7.089 13.696-14.8331 9.075-4.7991-2.8951-6.8714 4.788-14.8335-.4454-4.9081-3.2291-8.6709 6.4026-17.2874 2.8394-8.671-3.5632-13.8518-5.6788-18.869-.8908-5.0717 4.8437-11.7794 9.3538-20.0687 6.4578-8.2892-2.8389-9.9798-9.4642-9.489-12.582 1.4179-8.7966 9.9798-8.6853 11.125-13.8073 1.4179-6.4583 8.8892-11.135 16.8512-8.6853 7.9621 2.5054 12.8702 5.4004 16.7421 2.227 3.9265-3.1735 7.853-6.5696 15.3788-4.0643 7.5258 2.5054 13.1974 4.2313 22.5773-.1113z" fill="#591d06"/>
    <path d="m110.323 148.056c1.302-.114 1.054-1.315 1.054-1.315-.806.401-4.029.344-5.765.972-1.859-.457-3.967-.914-6.1363-1.543.1859 2.401-.9298 5.145-2.0455 7.204 3.6568.114 6.5708.228 8.3058.743 5.207 1.372 5.393-4.46 5.393-4.46-.496-.4-1.364-.8-2.48-1.086.558-.286 1.116-.457 1.674-.515z" fill="#edbab7"/>
    <path d="m100.047 153.563c-8.4172-.273-20.1227-.654-24.972-4.31-6.7446-5.073 4.4034-29.677 4.4034-29.677l-20.3451-12.329s11.7054-12.0015 20.3451-9.001c9.5873 3.328 11.3153 6.055 13.1547 14.293s-7.302 29.732-7.302 29.732 8.9184 2.127 16.5549 4.473c.167 2.291-.836 4.91-1.839 6.819z" fill="#f2b500"/>
</svg>